<svg width="80"
  height="80"
  viewBox="0 0 80 80"
  fill="none"
  xmlns="http://www.w3.org/2000/svg">
  <rect x="0.5"
    y="0.5"
    width="79"
    height="79"
    stroke="black"/>
  <path d="M28.2086 67.23C24.4912 67.23 21.2659 66.656 18.5326 65.508C15.7992 64.36 13.5579 62.802 11.8086 60.834C10.0592 58.8113 8.74724 56.4333 7.87258 53.7C7.05258 50.9667 6.64258 48.0147 6.64258 44.844V9.174H14.5966V43.942C14.5966 49.6273 15.8539 53.7547 18.3686 56.324C20.8832 58.8933 24.1632 60.178 28.2086 60.178C30.2312 60.178 32.0626 59.8773 33.7026 59.276C35.3972 58.62 36.8459 57.636 38.0486 56.324C39.2512 55.012 40.1806 53.3447 40.8366 51.322C41.4926 49.2447 41.8206 46.7847 41.8206 43.942V9.174H49.7746V44.844C49.7746 48.0147 49.3373 50.9667 48.4626 53.7C47.6426 56.4333 46.3306 58.8113 44.5266 60.834C42.7772 62.802 40.5359 64.36 37.8026 65.508C35.1239 66.656 31.9259 67.23 28.2086 67.23Z"
    fill="#0939E3"/>
  <path d="M29.4004 13.2637C29.9876 13.5306 30.6816 13.7174 31.4824 13.8242C32.3366 13.931 33.1374 13.9844 33.8848 13.9844C34.7923 13.9844 35.7266 13.9577 36.6875 13.9043C37.6484 13.8509 38.8229 13.7441 40.2109 13.584C41.332 13.4772 42.7201 13.3438 44.375 13.1836C46.0299 13.0234 47.8717 12.8099 49.9004 12.543C49.153 12.9167 48.5124 13.3171 47.9785 13.7441C47.4447 14.1712 46.9909 14.5983 46.6172 15.0254C46.1901 15.5059 45.8431 15.9863 45.5762 16.4668C45.2025 17.1074 44.6953 18.2285 44.0547 19.8301C43.4674 21.3783 42.8535 23.1133 42.2129 25.0352C41.6257 26.957 41.0918 28.9056 40.6113 30.8809C40.1842 32.8561 39.944 34.5378 39.8906 35.9258C39.8372 37.1003 39.7839 38.4349 39.7305 39.9297C39.6771 41.2109 39.6237 42.7858 39.5703 44.6543C39.5169 46.5228 39.4635 48.6582 39.4102 51.0605C43.2539 48.2845 46.2168 46.069 48.2988 44.4141C50.3809 42.7057 51.9023 41.3978 52.8633 40.4902C53.9844 39.4759 54.6517 38.7552 54.8652 38.3281C54.8118 38.0078 54.6784 37.6608 54.4648 37.2871C54.1979 36.9668 53.8242 36.5931 53.3438 36.166C52.8633 35.7389 52.1426 35.2585 51.1816 34.7246C52.5697 34.8848 53.7708 34.9915 54.7852 35.0449C55.8529 35.0983 56.7604 35.1517 57.5078 35.2051C58.362 35.2585 59.1094 35.2585 59.75 35.2051C60.444 35.2051 61.2982 35.1784 62.3125 35.125C64.0742 35.0716 66.7969 34.9915 70.4805 34.8848C66.9036 36.7533 64.0742 38.3548 61.9922 39.6895C60.8177 40.4368 59.7767 41.1309 58.8691 41.7715C57.9616 42.4655 57.0273 43.1862 56.0664 43.9336C55.2122 44.5742 54.2246 45.3216 53.1035 46.1758C52.0358 47.0299 50.9681 47.9375 49.9004 48.8984C51.7689 51.9414 53.3971 54.4505 54.7852 56.4258C56.2266 58.401 57.4277 60.0026 58.3887 61.2305C59.5098 62.6719 60.4974 63.8197 61.3516 64.6738C62.2057 65.4746 63.3268 66.3822 64.7148 67.3965C65.8893 68.304 67.4108 69.3717 69.2793 70.5996C71.2012 71.7741 73.5234 73.1354 76.2461 74.6836C74.8581 74.4167 73.5234 74.2298 72.2422 74.123C70.9609 74.0697 69.8665 74.0697 68.959 74.123C67.8379 74.1764 66.8236 74.2832 65.916 74.4434C64.9551 74.6569 63.8874 74.9238 62.7129 75.2441C61.6986 75.5111 60.4974 75.8581 59.1094 76.2852C57.7747 76.7656 56.3066 77.3796 54.7051 78.127C55.7194 77.3796 56.4668 76.6589 56.9473 75.9648C57.4811 75.3242 57.8548 74.7904 58.0684 74.3633C58.2819 73.8294 58.362 73.3757 58.3086 73.002C58.0417 72.4681 57.4277 71.3737 56.4668 69.7188C55.5592 68.3307 54.2246 66.3021 52.4629 63.6328C50.7012 60.9635 48.1921 57.3333 44.9355 52.7422C44.7754 52.7956 44.5085 52.9557 44.1348 53.2227C43.8145 53.4896 43.334 53.8633 42.6934 54.3438C42.0527 54.7708 41.1986 55.4115 40.1309 56.2656L42.293 70.2793C41.8125 70.4928 41.2786 70.6797 40.6914 70.8398C40.1576 71 39.6504 71.1335 39.1699 71.2402C38.5827 71.4004 37.9954 71.5072 37.4082 71.5605C36.821 71.6139 36.127 71.7207 35.3262 71.8809C34.6322 71.9876 33.8047 72.1211 32.8438 72.2812C31.8828 72.4948 30.7884 72.735 29.5605 73.002C30.2546 72.5215 30.8151 71.9609 31.2422 71.3203C31.6693 70.7331 32.0163 70.1725 32.2832 69.6387C32.5501 69.0514 32.7904 68.4375 33.0039 67.7969C33.1107 67.263 33.2174 65.875 33.3242 63.6328C33.4844 61.3906 33.6178 58.7214 33.7246 55.625C33.8314 52.4753 33.9115 49.112 33.9648 45.5352C34.0716 41.9583 34.125 38.5951 34.125 35.4453C34.125 32.2422 34.0983 29.4661 34.0449 27.1172C33.9915 24.7148 33.8848 23.1667 33.7246 22.4727C33.4577 21.6185 33.1374 20.7109 32.7637 19.75C32.4434 18.8958 31.9896 17.9349 31.4023 16.8672C30.8685 15.7461 30.2012 14.5449 29.4004 13.2637Z"
    fill="#FF8A00"/>
  <rect x="41.8203"
    y="11"
    width="7.95"
    height="16"
    fill="#0939E3"/>
</svg>
